<?xml version="1.0" encoding="UTF-8"?>
<svg version="1.1" xmlns="http://www.w3.org/2000/svg" width="512" height="512">
<path d="M0 0 C1.25781159 -0.00538554 2.51562317 -0.01077108 3.81155026 -0.01631981 C7.27754965 -0.03069615 10.74330968 -0.02655442 14.20932174 -0.019153 C17.95721744 -0.01440412 21.70506262 -0.02694634 25.45294189 -0.03717041 C32.7856214 -0.05433032 40.11821511 -0.05520425 47.45090948 -0.04995751 C53.41358232 -0.04590924 59.37622988 -0.04736715 65.33890152 -0.05270576 C66.61388905 -0.0538284 66.61388905 -0.0538284 67.91463391 -0.05497371 C69.6416258 -0.05650525 71.36861768 -0.0580436 73.09560956 -0.05958868 C89.2760597 -0.07330362 105.45646143 -0.06788316 121.63691045 -0.05640347 C136.42362861 -0.0464727 151.2102216 -0.05941084 165.99692045 -0.08333766 C181.19823481 -0.10774911 196.39949092 -0.11733147 211.60082448 -0.11068493 C220.12788033 -0.10719719 228.65483996 -0.10939533 237.18188095 -0.12693596 C244.44089113 -0.14168358 251.69973734 -0.14226007 258.95874439 -0.12486505 C262.65854004 -0.11637355 266.35804307 -0.11415972 270.05782318 -0.1295166 C274.07768385 -0.14599477 278.0968435 -0.13116907 282.11669922 -0.11352539 C283.273336 -0.1231304 284.42997278 -0.1327354 285.62165916 -0.14263147 C299.83635675 -0.014715 310.60976892 5.1202254 320.93533325 14.70018005 C330.92074975 25.25080881 333.64620022 37.0631524 333.57301331 51.2023468 C333.58109161 53.08906418 333.58109161 53.08906418 333.58933312 55.01389706 C333.60370945 58.47989645 333.59956772 61.94565648 333.5921663 65.41166854 C333.58741742 69.15956424 333.59995964 72.90740943 333.61018372 76.6552887 C333.62734362 83.9879682 333.62821756 91.32056191 333.62297081 98.65325628 C333.61892255 104.61592912 333.62038046 110.57857668 333.62571907 116.54124832 C333.62646749 117.39124001 333.62721591 118.2412317 333.62798702 119.11698071 C333.62951856 120.8439726 333.63105691 122.57096448 333.63260198 124.29795636 C333.64631693 140.4784065 333.64089647 156.65880823 333.62941677 172.83925726 C333.619486 187.62597541 333.63242414 202.4125684 333.65635096 217.19926725 C333.68076242 232.40058161 333.69034477 247.60183772 333.68369824 262.80317128 C333.68021049 271.33022713 333.68240864 279.85718677 333.69994926 288.38422775 C333.71469688 295.64323794 333.71527337 302.90208414 333.69787835 310.16109119 C333.68938685 313.86088684 333.68717303 317.56038987 333.70252991 321.26016998 C333.71900808 325.28003065 333.70418238 329.2991903 333.6865387 333.31904602 C333.6961437 334.4756828 333.70574871 335.63231958 333.71564478 336.82400596 C333.5877283 351.03870355 328.45278791 361.81211572 318.87283325 372.13768005 C308.3222045 382.12309655 296.5098609 384.84854703 282.3706665 384.77536011 C281.11285492 384.78074565 279.85504333 384.78613118 278.55911624 384.79167992 C275.09311685 384.80605626 271.62735683 384.80191452 268.16134477 384.79451311 C264.41344907 384.78976423 260.66560388 384.80230644 256.91772461 384.81253052 C249.5850451 384.82969042 242.25245139 384.83056436 234.91975702 384.82531761 C228.95708419 384.82126935 222.99443662 384.82272726 217.03176498 384.82806587 C216.1817733 384.82881429 215.33178161 384.82956272 214.4560326 384.83033382 C212.72904071 384.83186536 211.00204882 384.83340371 209.27505694 384.83494879 C193.09460681 384.84866373 176.91420507 384.84324327 160.73375605 384.83176357 C145.9470379 384.8218328 131.1604449 384.83477094 116.37374605 384.85869776 C101.1724317 384.88310922 85.97117559 384.89269157 70.76984203 384.88604504 C62.24278617 384.88255729 53.71582654 384.88475544 45.18878555 384.90229607 C37.92977537 384.91704368 30.67092917 384.91762017 23.41192211 384.90022516 C19.71212647 384.89173365 16.01262343 384.88951983 12.31284332 384.90487671 C8.29298265 384.92135488 4.273823 384.90652918 0.25396729 384.8888855 C-0.9026695 384.8984905 -2.05930628 384.90809551 -3.25099266 384.91799158 C-17.46569024 384.7900751 -28.23910241 379.65513471 -38.56466675 370.07518005 C-48.55008325 359.5245513 -51.27553372 347.71220771 -51.2023468 333.57301331 C-51.20773234 332.31520172 -51.21311788 331.05739013 -51.21866661 329.76146305 C-51.23304295 326.29546365 -51.22890122 322.82970363 -51.2214998 319.36369157 C-51.21675092 315.61579587 -51.22929314 311.86795068 -51.23951721 308.12007141 C-51.25667712 300.7873919 -51.25755105 293.45479819 -51.25230431 286.12210383 C-51.24825604 280.15943099 -51.24971395 274.19678342 -51.25505257 268.23411179 C-51.25580099 267.3841201 -51.25654941 266.53412841 -51.25732051 265.6583794 C-51.25885206 263.93138751 -51.2603904 262.20439562 -51.26193548 260.47740375 C-51.27565042 244.29695361 -51.27022996 228.11655188 -51.25875027 211.93610285 C-51.2488195 197.1493847 -51.26175764 182.36279171 -51.28568446 167.57609285 C-51.31009591 152.3747785 -51.31967827 137.17352239 -51.31303173 121.97218883 C-51.30954399 113.44513298 -51.31174213 104.91817334 -51.32928276 96.39113235 C-51.34403038 89.13212217 -51.34460687 81.87327597 -51.32721185 74.61426891 C-51.31872035 70.91447327 -51.31650652 67.21497024 -51.3318634 63.51519012 C-51.34834157 59.49532945 -51.33351588 55.47616981 -51.31587219 51.45631409 C-51.3302797 49.72135892 -51.3302797 49.72135892 -51.34497827 47.95135415 C-51.2170618 33.73665656 -46.0821214 22.96324439 -36.50216675 12.63768005 C-25.951538 2.65226356 -14.1391944 -0.07318692 0 0 Z " fill="#FF5454" transform="translate(114.81466674804688,63.61231994628906)"/>
<path d="M0 0 C0.74765625 -0.02578125 1.4953125 -0.0515625 2.265625 -0.078125 C9.00863857 0.8124617 13.22824039 5.30919744 17.76513672 9.92456055 C18.43900925 10.597995 19.11288177 11.27142944 19.80717468 11.965271 C22.02186885 14.18204695 24.22576054 16.40924207 26.4296875 18.63671875 C27.96745289 20.18008224 29.50588413 21.72278256 31.04495239 23.2648468 C35.08589747 27.31722372 39.11775051 31.37853011 43.14776611 35.44177246 C47.26492456 39.58966733 51.39063209 43.72903949 55.515625 47.86914062 C63.60213224 55.98778277 71.67905841 64.11588555 79.75 72.25 C82.56626308 70.96737279 84.61033064 69.63633359 86.78564453 67.44140625 C87.35752502 66.86938477 87.92940552 66.29736328 88.51861572 65.70800781 C89.13380066 65.08249023 89.7489856 64.45697266 90.3828125 63.8125 C91.04021423 63.15217773 91.69761597 62.49185547 92.37493896 61.81152344 C93.80018069 60.37867699 95.22310732 58.94352484 96.64398193 57.50634766 C98.89222544 55.23257899 101.14665654 52.96511524 103.40283203 50.69921875 C108.19082598 45.88836455 112.97096021 41.06974711 117.75 36.25 C123.28768098 30.66514967 128.82851978 25.08351278 134.37786865 19.51025391 C136.59994395 17.27520237 138.81591468 15.03421586 141.03173828 12.79296875 C142.39325816 11.42418415 143.75505943 10.05567937 145.1171875 8.6875 C145.73237244 8.06198242 146.34755737 7.43646484 146.98138428 6.79199219 C147.55326477 6.2199707 148.12514526 5.64794922 148.71435547 5.05859375 C149.20692841 4.56157959 149.69950134 4.06456543 150.20700073 3.55249023 C154.10883296 0.25884099 157.55951041 -0.13399725 162.5078125 0.00390625 C167.39215739 0.53999288 170.45007628 2.68577265 173.5625 6.3125 C176.11242636 9.73668683 176.91489315 11.32976448 177 15.5 C177.03867187 16.62148437 177.03867187 16.62148437 177.078125 17.765625 C176.1875383 24.50863857 171.69080256 28.72824039 167.07543945 33.26513672 C166.402005 33.93900925 165.72857056 34.61288177 165.034729 35.30717468 C162.81795305 37.52186885 160.59075793 39.72576054 158.36328125 41.9296875 C156.81991776 43.46745289 155.27721744 45.00588413 153.7351532 46.54495239 C149.68277628 50.58589747 145.62146989 54.61775051 141.55822754 58.64776611 C137.41033267 62.76492456 133.27096051 66.89063209 129.13085938 71.015625 C121.01221723 79.10213224 112.88411445 87.17905841 104.75 95.25 C106.03262721 98.06626308 107.36366641 100.11033064 109.55859375 102.28564453 C110.13061523 102.85752502 110.70263672 103.42940552 111.29199219 104.01861572 C111.91750977 104.63380066 112.54302734 105.2489856 113.1875 105.8828125 C113.84782227 106.54021423 114.50814453 107.19761597 115.18847656 107.87493896 C116.62132301 109.30018069 118.05647516 110.72310732 119.49365234 112.14398193 C121.76742101 114.39222544 124.03488476 116.64665654 126.30078125 118.90283203 C131.11163545 123.69082598 135.93025289 128.47096021 140.75 133.25 C146.33485033 138.78768098 151.91648722 144.32851978 157.48974609 149.87786865 C159.72479763 152.09994395 161.96578414 154.31591468 164.20703125 156.53173828 C165.57581585 157.89325816 166.94432063 159.25505943 168.3125 160.6171875 C168.93801758 161.23237244 169.56353516 161.84755737 170.20800781 162.48138428 C170.7800293 163.05326477 171.35205078 163.62514526 171.94140625 164.21435547 C172.43842041 164.70692841 172.93543457 165.19950134 173.44750977 165.70700073 C176.74115901 169.60883296 177.13399725 173.05951041 176.99609375 178.0078125 C176.46390144 182.85667581 174.3273332 185.93900758 170.75 189.0625 C167.22780205 191.63076934 164.70144589 192.42257777 160.4375 192.5625 C159.69886719 192.59988281 158.96023438 192.63726562 158.19921875 192.67578125 C151.86902936 191.5753177 147.15739867 185.93514371 142.82666016 181.55371094 C142.1625412 180.88988403 141.49842224 180.22605713 140.81417847 179.54211426 C138.63436168 177.36091134 136.46170257 175.17272455 134.2890625 172.984375 C132.77349869 171.46507852 131.25749082 169.94622488 129.74105835 168.42779541 C125.76152733 164.44064798 121.78804061 160.44752979 117.8157959 156.453125 C113.75714293 152.37397071 109.69278412 148.3005103 105.62890625 144.2265625 C97.66368607 136.23992755 89.7048417 128.24697124 81.75 120.25 C78.93398927 121.53221439 76.89321763 122.86108154 74.72108459 125.05859375 C74.15064926 125.63061523 73.58021393 126.20263672 72.99249268 126.79199219 C72.37887878 127.41750977 71.76526489 128.04302734 71.13305664 128.6875 C70.4772612 129.34782227 69.82146576 130.00814453 69.14579773 130.68847656 C67.72386444 132.12136011 66.30421289 133.55651075 64.88658333 134.99365234 C62.64261968 137.26777224 60.39204901 139.53515592 58.13951111 141.80078125 C51.73687949 148.2431734 45.34699912 154.69816076 38.96020508 161.15625 C35.05211204 165.107042 31.13674885 169.05051133 27.21700859 172.98974609 C25.72496469 174.49236135 24.23584348 175.99788459 22.74971199 177.50634766 C20.67200879 179.61522361 18.58526945 181.71475424 16.49633789 183.8125 C15.88474823 184.43801758 15.27315857 185.06353516 14.64303589 185.70800781 C10.31167833 190.03004408 6.61994981 192.51256774 0.3125 192.625 C-4.23491047 192.51169243 -6.75606256 191.25641128 -10.25 188.25 C-13.82154363 184.29234355 -15.38776098 181.26244168 -15.5625 175.9375 C-15.59988281 175.19886719 -15.63726562 174.46023438 -15.67578125 173.69921875 C-14.5753177 167.36902936 -8.93514371 162.65739867 -4.55371094 158.32666016 C-3.88988403 157.6625412 -3.22605713 156.99842224 -2.54211426 156.31417847 C-0.36091134 154.13436168 1.82727545 151.96170257 4.015625 149.7890625 C5.53492148 148.27349869 7.05377512 146.75749082 8.57220459 145.24105835 C12.55935202 141.26152733 16.55247021 137.28804061 20.546875 133.3157959 C24.62602929 129.25714293 28.6994897 125.19278412 32.7734375 121.12890625 C40.76007245 113.16368607 48.75302876 105.2048417 56.75 97.25 C55.46778561 94.43398927 54.13891846 92.39321763 51.94140625 90.22108459 C51.36938477 89.65064926 50.79736328 89.08021393 50.20800781 88.49249268 C49.58249023 87.87887878 48.95697266 87.26526489 48.3125 86.63305664 C47.3220166 85.64936348 47.3220166 85.64936348 46.31152344 84.64579773 C44.87863989 83.22386444 43.44348925 81.80421289 42.00634766 80.38658333 C39.73222776 78.14261968 37.46484408 75.89204901 35.19921875 73.63951111 C28.7568266 67.23687949 22.30183924 60.84699912 15.84375 54.46020508 C11.892958 50.55211204 7.94948867 46.63674885 4.01025391 42.71700859 C2.50763865 41.22496469 1.00211541 39.73584348 -0.50634766 38.24971199 C-2.61522361 36.17200879 -4.71475424 34.08526945 -6.8125 31.99633789 C-7.43801758 31.38474823 -8.06353516 30.77315857 -8.70800781 30.14303589 C-13.03004408 25.81167833 -15.51256774 22.11994981 -15.625 15.8125 C-15.51169243 11.26508953 -14.25641128 8.74393744 -11.25 5.25 C-7.45888732 1.91021026 -5.0493405 0.10304777 0 0 Z " fill="#FFFEFE" transform="translate(175.25,159.75)"/>
</svg>
